<?xml version="1.0" encoding="utf-8"?>
<!-- Generator: Adobe Illustrator 24.0.1, SVG Export Plug-In . SVG Version: 6.00 Build 0)  -->
<svg version="1.1" id="Слой_1" xmlns="http://www.w3.org/2000/svg" xmlns:xlink="http://www.w3.org/1999/xlink" x="0px" y="0px"
	 viewBox="0 0 95.2 105.7" style="enable-background:new 0 0 95.2 105.7;" xml:space="preserve">
<style type="text/css">
	.st0{fill:#AD8A59;}
	.st1{fill:#063B87;}
</style>
<path class="st0" d="M39.5,40.7c0,0.1-0.1,0.2-0.1,0.2c0.1,0,0.1-0.1,0.2-0.1c0.1-0.1,0.2-0.2,0.2-0.2c1.1-0.8,2.2-1.7,3-2.9
	c1.6-2.3,3.3-4.5,5-6.7c0.7-0.9,1-1.7,1-3.2c-3.2,4.4-6.2,8.5-9.2,12.6C39.7,40.5,39.6,40.6,39.5,40.7z"/>
<path class="st0" d="M49,50.4c0.1,0,0.2-0.1,0.1-0.2C49.1,50.2,49,50.3,49,50.4c-0.2,0-0.3,0.1-0.4,0.1c-3,1.8-6,3.6-9,5.4
	c-2.9,1.7-2.9,2.1-1.1,5c0,0,0,0.1,0.1,0.1c0.2,0.5,0.5,0.5,0.9,0.1c3.1-3.5,6.2-7,9.3-10.5C48.8,50.5,48.9,50.5,49,50.4z"/>
<path class="st0" d="M49.2,43.9L49.2,43.9L49.2,43.9c-0.1-0.1-0.3-0.2-0.4-0.3c-1-1.4-2.3-2.7-3.4-3.9c-0.7-0.8-1.4,0.1-1.8,0.5
	c-0.5,0.4,0.3,0.6,0.5,0.8c1.5,0.9,3,1.9,4.6,2.8C48.8,43.8,49,43.9,49.2,43.9z"/>
<path class="st0" d="M56.9,43.7c0.2-0.1,0.3-0.2,0.5-0.2c1.5-0.9,3.1-1.8,4.6-2.8c0.2-0.1,0.5-0.2,0.3-0.5c-0.2-0.6-1.6-1-2-0.5
	c-1,1.2-2.2,2.3-3.1,3.6C57.1,43.4,57,43.5,56.9,43.7C56.7,43.7,56.6,43.7,56.9,43.7C56.8,43.8,56.9,43.7,56.9,43.7z"/>
<path class="st0" d="M47.3,76.7c-0.1,0-0.2,0-0.3,0c0,0,0,0.1,0.1,0.1C47.1,76.9,47.2,76.8,47.3,76.7c0.1-0.1,0.3-0.2,0.4-0.4
	c1.8-1.3,3.2-3.1,4.5-4.9c0.2-0.3,0.6-0.6,0.3-0.9c-0.4-0.3-0.8-0.1-1.1,0.3c-1.3,1.8-2.6,3.5-3.8,5.3
	C47.3,76.4,47.2,76.5,47.3,76.7z"/>
<path class="st0" d="M28.8,35.5c-1,0.9-1.6,2.2-2,3.5C27.5,37.8,29,37.1,28.8,35.5C28.9,35.4,28.9,35.4,28.8,35.5
	C28.9,35.4,28.9,35.4,28.8,35.5C28.9,35.4,28.8,35.5,28.8,35.5z"/>
<path class="st0" d="M24.7,53.2c-1,0-1.5,0.6-2,1.3c-0.2,0.3-0.2,0.5,0.1,0.7c0.3,0.2,0.5,0.1,0.7-0.2C24,54.5,24.6,54,24.7,53.2
	l0.1-0.1C24.8,53.1,24.8,53.1,24.7,53.2C24.8,53.2,24.8,53.2,24.7,53.2z"/>
<path class="st0" d="M62.7,81.8c-1.1,1.1-1.9,2.5-2.9,3.8c-0.1,0.2-0.3,0.4,0,0.6c0.2,0.2,0.5,0.3,0.7,0
	C61.3,84.8,63,83.8,62.7,81.8L62.7,81.8C62.7,81.7,62.7,81.7,62.7,81.8C62.7,81.7,62.7,81.8,62.7,81.8z"/>
<path class="st0" d="M53.8,74.8c1.3-1.5,2.5-3.2,3.7-5c-0.9,0-1.3,0.4-1.8,0.9C54.6,71.9,54.2,73.4,53.8,74.8c-0.2,0-0.3,0-0.1,0.2
	C53.7,75,53.7,74.9,53.8,74.8z"/>
<path class="st0" d="M25.2,61.3c-0.5,0-1,0.1-1.4,0.6c-0.7,1-1.5,2-2.3,3.1c-0.2,0.2-0.5,0.5-0.1,0.8c0.4,0.2,0.7,0.1,0.9-0.2
	C23.3,64.1,24.3,62.8,25.2,61.3c0.1,0,0.1,0,0.2-0.1C25.3,61.3,25.2,61.3,25.2,61.3z"/>
<path class="st0" d="M49.9,42.7c0.1,0,0.1,0.1,0.2,0.1c0-0.1,0-0.2-0.1-0.2c-0.6-1.3-1.2-2.7-1.8-4c-0.4-0.9-1.1-0.3-1.6-0.1
	c-0.6,0.4,0,0.7,0.2,0.9C47.8,40.5,48.9,41.6,49.9,42.7z"/>
<path class="st0" d="M55.7,42.9c1.1-1.2,2.2-2.4,3.3-3.6c0.2-0.2,0.9-0.5,0.2-0.9c-0.4-0.2-1.1-0.8-1.4-0.1
	C57,39.9,56.1,41.3,55.7,42.9L55.7,42.9C55.6,43,55.6,43,55.7,42.9C55.7,43,55.7,42.9,55.7,42.9z"/>
<path class="st0" d="M44.3,37.5c0.7-0.2,1.3-0.4,1.7-1c0.2-0.4,0.5-0.7,0.8-1.1c0.8-1.1,1.6-2.3,2.5-3.4c0.3-0.5,0.3-0.9-0.1-1.1
	c-0.4-0.3-0.5,0.3-0.6,0.5C47.1,33.4,45.7,35.4,44.3,37.5c0,0-0.1,0-0.1,0.1C44.1,37.7,44.2,37.6,44.3,37.5z"/>
<path class="st0" d="M28.6,59.7c-0.6-0.1-1.1,0.2-1.5,0.7c-1.4,1.9-2.8,3.8-4.3,5.7c0.6,0.1,1.1,0.3,1.4-0.2
	C25.7,63.8,27.3,61.9,28.6,59.7c0.1,0,0.1,0,0.1-0.1C28.6,59.6,28.6,59.7,28.6,59.7z"/>
<path class="st0" d="M57.7,74.4c1-0.3,1.7-1,2.2-1.8c1.3-1.8,2.6-3.6,4-5.4c0.1-0.2,0.4-0.4,0.2-0.8c-3,2-4.5,5.1-6.6,7.9
	c-0.1,0.1-0.2,0.2-0.3,0.3C57.4,74.6,57.5,74.6,57.7,74.4z"/>
<path class="st0" d="M30.5,53.9c0.2,0,0.4-0.1,0.6-0.3c1.4-1.9,2.8-3.7,4.1-5.6c0.5-0.8,0.8-1.7,1.1-2.6c-0.5,0.1-0.6,0.4-0.8,0.6
	c-1.4,1.9-2.8,3.9-4.3,5.8C30.7,52.5,30.4,53.1,30.5,53.9c-0.3-0.1-0.6-0.3-1,0.1c-0.5,0.8-1.2,1.6-1.7,2.4c-0.1,0.2-0.3,0.4,0,0.6
	c0.2,0.1,0.5,0.3,0.7,0C29.2,56,30.3,55.3,30.5,53.9z"/>
<path class="st0" d="M32.9,42.2c1.9-1.4,5.5-7.1,5.4-8.5c-1.6,2.2-3.2,4.4-4.8,6.5C32.9,40.8,32.7,41.4,32.9,42.2
	c-0.3,0.1-0.7-0.4-1,0.1c-1.3,1.8-2.7,3.6-4,5.4c-0.2,0.3-0.1,0.7,0.2,0.9c0.4,0.3,0.5-0.2,0.7-0.4c1.1-1.5,2.2-2.9,3.3-4.4
	C32.4,43.2,32.9,42.9,32.9,42.2z"/>
<path class="st0" d="M69.6,59.2c2.4-3.2,4.7-6.3,7.1-9.5c0.2-0.2,0.3-0.5,0-0.7s-0.5-0.3-0.7,0c-0.1,0.2-0.3,0.4-0.4,0.6
	c-1.6,2.2-3.2,4.4-4.9,6.7C70,57.2,69.7,58.2,69.6,59.2c-0.2,0-0.2,0-0.1,0.2C69.5,59.3,69.6,59.3,69.6,59.2z"/>
<path class="st0" d="M40.8,34.5c0.7-0.5,1.1-1.3,1.6-1.9c2.5-3.3,4.9-6.6,7.4-9.9c0.4-0.5,0.8-1,0-1.6c-2.7,3.6-5.3,7.2-8,10.8
	C41.1,32.7,40.8,33.5,40.8,34.5c-0.1,0-0.2,0-0.1,0.2C40.8,34.6,40.8,34.6,40.8,34.5z"/>
<path class="st0" d="M48,49.1c-3.7,1-7.3,2-11,3c-0.3,0.1-0.6,0.3-0.6,0.7c0,0.9,0.1,1.8,0.1,2.7c0,0.6,0.3,0.7,0.8,0.3
	c0.6-0.4,1.2-0.8,1.8-1.1C42.2,52.9,45.2,51.2,48,49.1c0.2,0,0.3,0,0.3-0.1l-0.1-0.1C48.2,49,48.1,49.1,48,49.1z"/>
<path class="st0" d="M57.5,50.7c-0.2-0.1-0.3-0.2-0.5,0c0.1,0.1,0.2,0.1,0.3,0.2c2.5,2.8,5,5.6,7.5,8.4c2.3,2.6,2.4,2.6,3.6-0.8
	c0-0.1,0.1-0.2,0.1-0.3c0.2-0.4,0.1-0.6-0.3-0.8C64.7,55.2,61.2,52.8,57.5,50.7z"/>
<path class="st0" d="M5.8,52.9c0,10.8,3.7,21.5,10.8,30c9.2,11.1,21.1,16.8,35.5,17.3c0.8,0,1-0.2,1-1c-0.1-1.7-0.1-3.4,0-5
	c0-0.9-0.3-1.1-1.1-1c-1.9,0-3.7-0.2-5.6-0.5C21,88.4,5.8,61.1,16,37.5c6.8-15.6,19.1-23.8,36.1-24.8c0.7,0,1-0.1,1-0.9
	C53,10,53,8.3,53.1,6.5c0-0.7-0.2-0.9-0.9-0.8c-1.9,0.1-3.8,0.2-5.7,0.5C23.3,9.4,5.9,29.4,5.8,52.9z"/>
<path class="st0" d="M52.9,51.7c-0.2,0.5-0.2,0.6-0.2,0.8c-0.8,5.2-1.6,10.5-2.5,15.7c-0.1,0.5,0.2,0.7,0.6,0.8
	c1.3,0.2,2.6,0.2,3.9,0c0.6-0.1,0.7-0.4,0.6-0.9C54.6,62.7,53.8,57.3,52.9,51.7z"/>
<path class="st0" d="M61.4,66.5c-0.1-0.1-0.1-0.3-0.2-0.4c-2.1-4.5-4.2-8.9-6.3-13.4c-0.1-0.2-0.2-0.5-0.5-0.3
	c-0.2,0.1-0.1,0.4-0.1,0.6c0.3,1.9,0.6,3.8,0.9,5.7c0.5,3,0.9,6.1,1.3,9.1c0.1,0.8,0.4,0.9,1.1,0.7c1.1-0.4,2.2-0.8,3.2-1.3
	C61.1,67,61.4,66.9,61.4,66.5z"/>
<path class="st0" d="M51.5,51.8c-0.1,0-0.1,0-0.2-0.1c-2.3,4.8-4.6,9.7-6.9,14.5c-0.2,0.5,0,0.7,0.4,0.8c1,0.4,2,0.8,3,1.3
	c0.9,0.4,1.2,0.1,1.3-0.8C49.9,62.3,50.7,57,51.5,51.8z"/>
<path class="st0" d="M55.7,51.6c1.8,3.9,3.7,7.8,5.5,11.6c0.3,0.7,0.7,1.4,1,2.1c0.2,0.6,0.5,0.7,1,0.3c0.8-0.7,1.5-1.4,2.3-2.1
	c0.5-0.5,0.6-0.9,0-1.6c-3-3.3-6-6.6-8.9-9.8C56.4,51.8,56.2,51.5,55.7,51.6z"/>
<path class="st0" d="M50,51.7c-0.1-0.1-0.2-0.1-0.3-0.2c-0.2,0.2-0.4,0.4-0.6,0.6c-2.4,2.7-4.8,5.3-7.2,8c-2.6,2.8-2.5,3,0.6,5.3
	c0.6,0.5,0.8,0.5,1.2-0.3c1.2-2.6,2.5-5.3,3.7-7.9C48.2,55.5,49.1,53.6,50,51.7z"/>
<path class="st0" d="M57.5,81.2c0.3,0.1,0.4-0.1,0.5-0.2c7-9.4,14-18.9,20.9-28.3c0.3-0.4,0.6-0.7,0.1-1.1c-0.6-0.4-0.7,0.3-0.9,0.6
	c-6.7,9-13.3,18-20,27C57.6,79.7,57.4,80.4,57.5,81.2z"/>
<path class="st0" d="M50.5,22.9c-0.3,0.4-0.6,0.7-0.8,1C44.5,31,39.2,38.1,34,45.2c-1.3,1.8-2.6,3.6-4,5.4c-0.3,0.4-0.4,0.8,0,1.2
	c0.4,0.3,0.5-0.2,0.7-0.4c6.5-8.8,13.1-17.7,19.6-26.5C50.6,24.4,50.8,23.8,50.5,22.9z"/>
<path class="st0" d="M59,76.3c0.6-0.2,0.8-0.6,1-1c4.8-6.4,9.5-12.8,14.3-19.3c1.2-1.6,2.4-3.3,3.6-4.9c0.2-0.3,0.4-0.6,0-0.9
	c-0.4-0.3-0.6,0.1-0.7,0.3c-0.1,0.1-0.2,0.3-0.4,0.5C71.2,58.6,65.6,66.2,60,73.7C59.4,74.5,59,75.3,59,76.3z"/>
<path class="st0" d="M69,56.3c0.3-1.1,0.4-2.1,0.4-3.2c0-0.7-0.3-1-0.9-1.2c-1.7-0.4-3.3-0.9-5-1.4c-1.9-0.5-3.8-1-5.7-1.6
	c0,0.1-0.1,0.2-0.1,0.2C61.4,51.6,65.2,54,69,56.3z"/>
<path class="st0" d="M58.1,47.7c0,0.1,0,0.2,0,0.2c3,0.8,6,1.7,9.1,2.5c0.6,0.2,1.4,0.7,1.8,0.3c0.5-0.5-0.1-1.3-0.2-1.9
	c-0.1-0.5-0.2-1.2-1.1-1.2C64.5,47.7,61.3,47.7,58.1,47.7z"/>
<path class="st0" d="M47.6,47.9c0-0.1,0-0.2,0-0.2c-2.9,0-5.8,0-8.7,0c-0.5,0-1.1-0.3-1.4,0.3c-0.4,0.8-0.6,1.6-0.6,2.5
	c0,0.4,0.4,0.3,0.6,0.3C40.8,49.8,44.2,48.9,47.6,47.9z"/>
<path class="st0" d="M38.2,36.5C35.1,40.8,32,45,29,49.1c-0.3,0.4-0.3,0.8,0.1,1.1c0.5,0.3,0.6-0.3,0.7-0.5c2.7-3.7,5.5-7.4,8.2-11
	C38.4,38,38.6,37.5,38.2,36.5z"/>
<path class="st0" d="M48,46.5c0-0.3-0.2-0.3-0.3-0.3c-2.4-0.7-4.8-1.4-7.3-2c-0.7-0.2-2.3,1.3-2.2,2.1c0.1,0.4,0.3,0.3,0.6,0.3
	C41.8,46.5,44.9,46.5,48,46.5z"/>
<path class="st0" d="M57.9,46.3c0,0.1,0,0.1,0,0.2c3,0,6.1,0,9.1,0c0.3,0,0.7,0.1,0.5-0.5c-0.4-1.5-1.4-2.1-2.9-1.7
	c-1,0.3-2,0.6-3,0.8C60.4,45.5,59.1,45.9,57.9,46.3z"/>
<path class="st0" d="M37.5,81c0.9,0.2,1.3-0.1,1.7-0.7c2.5-3.3,4.9-6.7,7.4-10c0.2-0.2,0.7-0.4,0.2-0.8c-0.4-0.3-0.7,0-1,0.3
	c-0.7,0.8-1.1,1.7-1.8,2.5C41.7,75.1,39.7,78,37.5,81z"/>
<path class="st0" d="M57.8,83.6c0.3,0,0.4-0.2,0.5-0.3c2.4-3.2,4.7-6.4,7.1-9.5c0.4-0.6,0.4-1.2,0.4-2.2c-2.8,3.8-5.4,7.2-7.9,10.7
	C57.5,82.8,57.5,83.2,57.8,83.6z"/>
<path class="st0" d="M39.8,80.7c0.8-0.1,1.4-0.2,1.8-0.8c2.2-3.1,4.5-6.1,6.7-9.2c0.1-0.2,0.6-0.4,0.1-0.8c-0.4-0.2-0.6-0.2-0.9,0.2
	C45,73.7,42.5,77.1,39.8,80.7z"/>
<path class="st0" d="M69.8,47.5c2.6-3.5,5.1-6.9,7.7-10.4c-0.7-0.3-1.1-0.2-1.4,0.3c-2.1,2.9-4.2,5.7-6.3,8.5
	C69.3,46.5,69.3,46.9,69.8,47.5z"/>
<path class="st0" d="M34.7,55.9c-2.5,3.3-4.9,6.6-7.3,9.9c-0.1,0.2-0.3,0.4-0.1,0.5c0.1,0.1,0.4,0.1,0.6,0.1c0.4,0,0.6-0.4,0.8-0.7
	c2-2.7,4-5.5,6-8.2C35,57,35.1,56.5,34.7,55.9z"/>
<path class="st0" d="M52.5,79.6c2.8-3.7,5.3-7.2,8-10.9C58.4,69.4,52.5,77.4,52.5,79.6z"/>
<path class="st0" d="M42.8,79.6c1-0.1,1.7-0.6,2.2-1.3c1.7-2.4,3.5-4.7,5.2-7c0.2-0.3,0.7-0.6,0.3-0.9s-0.8-0.1-1.1,0.3
	C47.2,73.7,45,76.6,42.8,79.6z"/>
<path class="st0" d="M61.7,26.1c-1.1,0.3-6.6,7.3-7.6,9.4c0.6,0.3,1,0,1.4-0.5c1.1-1.5,2.3-3,3.3-4.5C59.8,29.1,61,27.9,61.7,26.1z"
	/>
<path class="st0" d="M70.7,55.1c1.3-1.8,2.5-3.3,3.6-4.9c0.4-0.6,1.4-1.1,1-2.1c0-0.1,0.2-0.3,0.3-0.3c0.9-0.3,1.3-1.1,1.8-1.8
	c0.2-0.3,0.7-0.6,0.2-1s-0.8,0.2-1,0.5c-1.8,2.4-3.6,4.9-5.4,7.3C70.7,53.4,70.4,54,70.7,55.1z"/>
<path class="st0" d="M64.8,75.8c-2.1,2.8-4.2,5.7-6.3,8.5c-0.2,0.3-0.2,0.6,0.1,0.8c0.4,0.4,0.6-0.1,0.7-0.3
	c1.5-2.1,3.1-4.1,4.5-6.2C64.4,77.9,64.8,77,64.8,75.8z"/>
<path class="st0" d="M75.3,37.1c0-0.3-0.2-0.3-0.4-0.4c-0.5-0.1-0.7,0.3-0.9,0.6c-1.2,1.6-2.4,3.2-3.5,4.8c-0.5,0.7-1.1,1.5-1.6,2.2
	c-0.3,0.4-0.3,0.8,0.1,1.1s0.5-0.2,0.7-0.5c1.8-2.4,3.6-4.8,5.4-7.2C75.1,37.6,75.2,37.3,75.3,37.1z"/>
<path class="st0" d="M59.2,27.2c-0.8-0.1-1.2,0-1.5,0.4c-1.9,2.6-3.9,5.2-5.8,7.9c0.6,0.2,1,0.3,1.3-0.2
	C55.1,32.7,57.1,30,59.2,27.2z"/>
<path class="st0" d="M68.3,29.3c-0.8-0.2-1.2,0-1.6,0.5c-1.8,2.4-3.5,4.7-5.3,7.1c-0.2,0.2-0.5,0.5-0.1,0.8s0.6,0.1,0.9-0.3
	C64.2,34.8,66.2,32.1,68.3,29.3z"/>
<path class="st0" d="M56.7,27.6c-0.7,0.1-1.3,0.1-1.7,0.6c-1.9,2.5-3.7,5-5.6,7.5c0.9,0.1,1.4-0.2,1.9-0.9
	C53.1,32.5,54.8,30.2,56.7,27.6z"/>
<path class="st0" d="M48.1,45c0-0.1,0.1-0.2,0.1-0.2c-1.6-1-3.2-2-4.7-2.9c-1.3-0.8-1.7-0.8-2.6,0.5c-0.3,0.5-0.2,0.6,0.2,0.7
	C43.4,43.7,45.7,44.4,48.1,45z"/>
<path class="st0" d="M65.6,42.8c-1.1-0.5-1.2-2.1-2.6-1.3c-1.8,1-3.5,2.1-5.3,3.2C60.4,44.4,62.8,43.6,65.6,42.8z"/>
<path class="st0" d="M35.2,58c-2,2.7-3.8,5.2-5.7,7.8c-0.1,0.2-0.3,0.4-0.1,0.5c0.1,0.1,0.4,0.1,0.6,0.1c0.4,0,0.5-0.3,0.7-0.6
	c1.5-2,3-4.1,4.6-6.1C35.6,59.1,35.7,58.7,35.2,58z"/>
<path class="st0" d="M33.2,39.3c1.8-2.4,3.5-4.8,5.3-7.2c0.3-0.5,0.1-0.9-0.2-1.4c-1.5,2.1-3,4.1-4.5,6.1
	C33.2,37.5,33.1,38.3,33.2,39.3z"/>
<path class="st0" d="M65.8,29.8c-0.8-0.2-1.3,0-1.6,0.5c-1.4,2-2.9,3.9-4.3,5.9c-0.2,0.2-0.6,0.5-0.1,0.9c0.4,0.2,0.7,0.1,0.9-0.3
	C62.4,34.5,64.1,32.2,65.8,29.8z"/>
<path class="st0" d="M46.9,36.4c0.9-0.1,1.4-0.3,1.8-0.8c1.4-1.9,2.8-3.8,4.2-5.8c0.2-0.2,0.5-0.5,0.2-0.7c-0.3-0.3-0.6,0-0.8,0.1
	s-0.3,0.2-0.5,0.4C50.3,31.8,48.7,34,46.9,36.4z"/>
<path class="st0" d="M70.7,52.1c1.8-2.4,3.4-4.6,5.1-6.9c0.2-0.3,0.9-0.6,0.2-1c-0.6-0.4-0.8,0.2-1,0.5c-1.3,1.8-2.6,3.5-3.9,5.3
	C70.6,50.6,70.4,51.2,70.7,52.1z"/>
<path class="st0" d="M34.8,49.9c-1.9,2.5-3.5,4.8-5.1,7c-0.2,0.3-0.6,0.5-0.2,0.9c0.5,0.4,0.7,0,0.9-0.3c1.3-1.8,2.6-3.5,3.9-5.3
	C34.7,51.6,34.8,51,34.8,49.9z"/>
<path class="st0" d="M73.5,36.8c-0.7-0.3-1.1-0.1-1.5,0.4c-1.2,1.6-2.4,3.2-3.5,4.8c-0.2,0.3-0.5,0.6-0.7,1
	c-0.2,0.3-0.1,0.5,0.1,0.8c0.2,0.2,0.4,0.1,0.6-0.1C70.1,41.4,71.8,39.1,73.5,36.8z"/>
<path class="st0" d="M35,72.7c0.7,0.3,1.1,0.1,1.5-0.4c0.9-1.3,1.8-2.5,2.8-3.8c0.5-0.6,0.9-1.2,1.4-1.8c0.3-0.3,0.1-0.6-0.2-0.8
	c-0.3-0.3-0.5,0.1-0.7,0.3C38.3,68.3,36.7,70.5,35,72.7z"/>
<path class="st0" d="M30.7,59.9c0.1-0.4-0.2-0.4-0.4-0.4c-0.5-0.1-0.7,0.2-1,0.6c-1.3,1.8-2.7,3.6-4,5.5c-0.2,0.2-0.6,0.5-0.2,0.8
	c0.3,0.2,0.6,0.1,0.9-0.1c0.1-0.1,0.3-0.3,0.4-0.5c1.3-1.8,2.6-3.5,3.9-5.3C30.5,60.2,30.6,60,30.7,59.9z"/>
<path class="st0" d="M74.4,61.2c-0.1-0.1-0.2-0.4-0.3-0.5c-0.3-0.1-0.4,0.2-0.5,0.4c-1.3,1.8-2.6,3.5-3.9,5.3
	c-0.2,0.2-0.8,0.5-0.2,0.9c0.5,0.4,0.8,0,1-0.4c1.2-1.6,2.4-3.3,3.6-4.9C74.2,61.8,74.4,61.6,74.4,61.2z"/>
<path class="st0" d="M70.9,34.4c-0.6-0.3-1-0.2-1.4,0.3c-1.3,1.8-2.7,3.6-4,5.4c-0.2,0.3-0.4,0.5,0,0.8s0.6,0.1,0.8-0.2
	C67.8,38.6,69.3,36.6,70.9,34.4z"/>
<path class="st0" d="M31.3,66.3c0.8,0.2,1.2,0,1.6-0.5c0.9-1.3,1.9-2.6,2.9-4c0.2-0.3,0.4-0.6,0.6-0.9c0.2-0.3,0-0.6-0.3-0.8
	c-0.2-0.2-0.3,0.1-0.4,0.3C34.2,62.3,32.8,64.2,31.3,66.3z"/>
<path class="st0" d="M63,30.2c-0.6,0.2-1.2,0.5-1.6,1c-1,1.4-2,2.8-3,4.2c-0.2,0.3-0.8,0.6-0.3,1c0.4,0.3,0.8-0.1,1.1-0.4
	c1.2-1.7,2.5-3.3,3.7-5C63,30.8,63.2,30.6,63,30.2z"/>
<path class="st0" d="M70.4,49.7c1.3-1.8,2.6-3.6,3.9-5.3c0.2-0.3,0.6-0.6,0.1-0.9c-0.4-0.3-0.7,0-0.9,0.3c-1,1.4-2.1,2.8-3.1,4.2
	C70,48.5,70,49,70.4,49.7z"/>
<path class="st0" d="M76.5,42.8c1.1,0.1,4.3-3.6,5-5.6C80.4,37.2,77.9,40.1,76.5,42.8z"/>
<path class="st0" d="M67,42.4c0.4-0.1,0.5-0.4,0.7-0.6c1.1-1.5,2.2-2.9,3.3-4.4c0.2-0.2,0.6-0.5,0.2-0.8c-0.3-0.3-0.8-0.2-1,0.2
	c-1.2,1.6-2.3,3.1-3.5,4.7C66.3,42,66.6,42.2,67,42.4z"/>
<path class="st0" d="M68.9,34.2c-0.5-0.2-0.9-0.3-1.2,0.1c-1.2,1.6-2.4,3.2-3.5,4.8c-0.2,0.3-0.1,0.5,0.1,0.7s0.4,0.1,0.6-0.1
	C66.2,37.9,67.6,36.1,68.9,34.2z"/>
<path class="st0" d="M79.5,37.3c-0.7-0.4-1.1-0.2-1.5,0.4c-1,1.5-2.1,2.9-3.2,4.3c-0.2,0.2-0.6,0.5-0.3,0.8c0.3,0.3,0.8,0.2,1-0.2
	C76.9,40.9,78.2,39.1,79.5,37.3z"/>
<path class="st0" d="M37.3,72.6c0.8-0.1,1.2-0.1,1.6-0.5c1.1-1.4,2.1-2.9,3.2-4.3c0.2-0.3,0.2-0.5-0.1-0.7s-0.5-0.2-0.7,0.1
	C40,68.9,38.7,70.6,37.3,72.6z"/>
<path class="st0" d="M74.7,62.5c-1.3,1.8-2.5,3.4-3.8,5c-0.2,0.3-0.4,0.6,0,0.9c0.5,0.4,0.6-0.1,0.8-0.3c1-1.3,2-2.7,3-4
	C75.1,63.6,75.1,63.1,74.7,62.5z"/>
<path class="st0" d="M27.5,46.8c0.1-0.1,0.2-0.2,0.3-0.2c1.1-1.5,2.2-3,3.3-4.5c0.2-0.2,0.1-0.4-0.1-0.6c-0.3-0.2-0.5-0.3-0.7,0
	c-1,1.4-2.1,2.8-3.1,4.2C26.9,46.2,27.1,46.5,27.5,46.8z"/>
<path class="st0" d="M33.9,34.9c0.9-0.6,1.3-1.4,1.8-2c0.7-0.9,1.4-1.9,2.1-2.8c0.2-0.3,0.3-0.7,0-1c-0.2-0.3-0.4-0.1-0.6,0.1
	C36.1,31,34.4,32.4,33.9,34.9z"/>
<path class="st0" d="M34.5,53.2c-1.3,1.7-2.4,3.2-3.5,4.8c-0.2,0.3-0.5,0.5-0.1,0.9c0.5,0.4,0.6-0.1,0.8-0.3
	c0.8-1.1,1.6-2.2,2.4-3.3C34.6,54.7,34.7,54.1,34.5,53.2z"/>
<path class="st0" d="M77.1,57.5c0.2,0.1,0.4-0.1,0.5-0.2c1-1.3,1.9-2.6,2.9-3.9c0.2-0.2,0.3-0.5,0-0.7c-0.3-0.3-0.6-0.1-0.8,0.2
	c-1,1.3-1.9,2.6-2.9,3.9C76.4,57.2,76.7,57.4,77.1,57.5z"/>
<path class="st0" d="M82.2,53.9c0-0.3-0.2-0.3-0.3-0.5c-0.4-0.3-0.6,0-0.8,0.3c-0.8,1.1-1.6,2.2-2.4,3.3c-0.2,0.3-0.8,0.6-0.3,1
	c0.5,0.3,0.8-0.1,1.1-0.4c0.8-1.1,1.6-2.2,2.4-3.3C82.1,54.1,82.1,54,82.2,53.9z"/>
<path class="st0" d="M33.4,66.3c0.6,0.1,1,0.3,1.3-0.2c0.9-1.1,1.7-2.3,2.5-3.4c0.3-0.4,0-0.6-0.2-0.8c-0.3-0.3-0.4,0-0.5,0.2
	C35.5,63.4,34.5,64.8,33.4,66.3z"/>
<path class="st0" d="M75.2,64.7c-1.1,1.5-2.1,2.8-3.1,4.2c-0.3,0.4-0.4,0.7,0,1c0.5,0.3,0.6-0.2,0.8-0.5c0.8-1,1.5-2,2.2-3
	C75.5,66,75.4,65.4,75.2,64.7z"/>
<path class="st0" d="M26.8,45c0.4-0.6,0.8-1.1,1.2-1.6c0.6-0.8,1.2-1.6,1.8-2.4c0.2-0.3,0.2-0.7-0.1-0.9c-0.3-0.2-0.5,0.1-0.6,0.3
	c-0.8,1-1.5,2-2.3,3C26.3,44,26.3,44.4,26.8,45z"/>
<path class="st0" d="M26.2,42.9c2.8-3.2,3.1-3.8,2.7-4.9C27.1,39.4,25.9,41.5,26.2,42.9z"/>
<path class="st0" d="M54.2,42.2c0.1,0,0.1,0,0.2,0.1c0.6-1.3,1.2-2.5,1.8-3.8c0.2-0.4,0.5-0.8-0.2-1c-0.5-0.1-1.1-0.3-1.2,0.5
	C54.6,39.4,54.4,40.8,54.2,42.2z"/>
<path class="st0" d="M65.8,34c-1,1.4-2,2.7-3,4.1c-0.2,0.3-0.2,0.5,0.1,0.7c0.4,0.3,0.6,0,0.8-0.3c0.8-1,1.5-2.1,2.3-3.1
	C66.3,34.9,66.2,34.5,65.8,34z"/>
<path class="st0" d="M51.4,42.5c0.1,0,0.1,0,0.2-0.1c-0.2-1.5-0.5-3-0.7-4.5c-0.1-0.8-0.6-0.5-1.1-0.4c-0.3,0.1-0.7,0.1-0.5,0.6
	C50,39.6,50.7,41,51.4,42.5z"/>
<path class="st0" d="M52.8,42.2c0.1,0,0.1,0,0.2,0c0.2-1.5,0.5-2.9,0.7-4.4c0.1-0.6-0.4-0.6-0.8-0.6c-0.4,0-0.9-0.1-0.8,0.6
	C52.3,39.2,52.6,40.7,52.8,42.2z"/>
<path class="st0" d="M83.7,54.7c0-0.3-0.2-0.4-0.4-0.5c-0.3-0.1-0.5,0.1-0.7,0.3c-0.7,0.9-1.4,1.8-2,2.8c-0.2,0.3-0.8,0.6-0.3,0.9
	c0.4,0.3,0.8,0,1.1-0.4c0.7-0.9,1.3-1.8,2-2.7C83.6,55,83.7,54.8,83.7,54.7z"/>
<path class="st0" d="M67.1,32.5c2.1-0.6,2.8-2.6,3.9-4.1C68.8,29,68.3,31,67.1,32.5z"/>
<path class="st0" d="M39.9,72c2.1-0.3,2.5-2.1,3.6-3.2c0.2-0.2,0.4-0.5,0-0.8c-0.4-0.2-0.6-0.1-0.8,0.2C41.8,69.4,40.9,70.6,39.9,72
	z"/>
<path class="st0" d="M59.3,32.5c-0.1-0.1-0.1-0.4-0.3-0.5c-0.3-0.2-0.4,0.2-0.5,0.3c-0.7,0.9-1.4,1.8-2,2.8
	c-0.1,0.2-0.8,0.4-0.2,0.8c0.4,0.3,0.7,0.1,1-0.3c0.5-0.7,1.1-1.5,1.6-2.2C59,33.2,59.3,32.9,59.3,32.5z"/>
<path class="st0" d="M26.3,56.8c0.4,0,0.6-0.3,0.8-0.6c0.6-0.8,1.2-1.5,1.7-2.3c0.2-0.2,0.8-0.5,0.2-0.8c-0.3-0.2-0.7-0.1-1,0.3
	c-0.6,0.9-1.3,1.8-2,2.7c-0.1,0.1-0.3,0.3-0.1,0.5C26,56.7,26.2,56.7,26.3,56.8z"/>
<path class="st0" d="M75.4,67.2c-0.8,1.1-1.6,2.1-2.4,3.2c-0.2,0.3-0.3,0.7,0.1,1s0.5-0.1,0.7-0.3c0.5-0.7,1-1.4,1.5-2
	C75.8,68.5,75.8,67.9,75.4,67.2z"/>
<path class="st0" d="M24.5,56.3c0.4,0.1,0.5-0.2,0.7-0.4c0.5-0.7,1.1-1.5,1.6-2.2c0.2-0.2,0.6-0.5,0.2-0.8c-0.3-0.2-0.7-0.1-1,0.2
	c-0.6,0.8-1.2,1.6-1.9,2.5C23.9,56,24.1,56.2,24.5,56.3z"/>
<path class="st0" d="M82,58.3c0.5,0.3,0.9,0.3,1.3-0.1c0.6-0.8,1.2-1.6,1.8-2.4c0.2-0.3,0.2-0.5-0.1-0.7c-0.4-0.3-0.6-0.1-0.8,0.2
	C83.5,56.3,82.8,57.3,82,58.3z"/>
<path class="st0" d="M22.9,61.7c-1.8,0-2.1,1.5-2.9,2.3c-0.2,0.2-0.5,0.5-0.1,0.8s0.6,0.1,0.9-0.2C21.5,63.7,22.1,62.8,22.9,61.7z"
	/>
<path class="st0" d="M38.5,63.8c-0.1-0.2-0.3-0.4-0.4-0.5c-0.3-0.2-0.4,0-0.6,0.2c-0.5,0.7-1.1,1.5-1.6,2.2
	c-0.1,0.2-0.5,0.4-0.2,0.7c0.3,0.2,0.7,0.3,0.9-0.1c0.5-0.7,1-1.3,1.5-2C38.3,64.2,38.3,64,38.5,63.8z"/>
<path class="st0" d="M54.9,70.4c-1.8-0.1-2,1.7-2.9,2.6C53.8,73.1,54,71.4,54.9,70.4z"/>
<path class="st0" d="M83.9,58.6c0.6,0.1,1,0.2,1.4-0.2c0.4-0.5,0.8-1.1,1.2-1.6c0.2-0.2,0.3-0.4,0-0.7c-0.3-0.2-0.6-0.2-0.8,0.1
	C85.2,57,84.6,57.7,83.9,58.6z"/>
<path class="st0" d="M68.5,67.9c-0.7,0.9-1.3,1.7-1.9,2.5c-0.2,0.3-0.3,0.6,0,0.9c0.2,0.2,0.3,0.2,0.5,0
	C67.9,70.9,68.7,69,68.5,67.9z"/>
<path class="st0" d="M75.7,69.7c-0.6,0.8-1.2,1.6-1.8,2.3c-0.3,0.3-0.2,0.6,0,0.8c0.1,0.2,0.2,0.3,0.5,0.1
	C75.2,72.6,76,70.7,75.7,69.7z"/>
<path class="st0" d="M80.8,39.9c1.3-0.2,1.9-1,2.5-1.9c0.1-0.2,0.5-0.5,0.1-0.8c-0.3-0.2-0.6-0.1-0.8,0.2
	C81.9,38.3,81.2,38.9,80.8,39.9z"/>
<path class="st0" d="M36.1,70.1c-0.9,0.5-1.9,0.8-2.5,1.7c-0.1,0.2-0.6,0.5-0.2,0.8c0.3,0.2,0.7,0.2,1-0.1
	C34.9,71.6,35.5,70.8,36.1,70.1z"/>
<path class="st0" d="M42.7,71c1.4,0.3,1.8-0.8,2.3-1.5c0.2-0.2,0.4-0.4,0-0.7c-0.3-0.2-0.6-0.3-0.8,0.1C43.8,69.6,43.2,70.3,42.7,71
	z"/>
<path class="st0" d="M39.6,65.1c-0.1-0.1-0.3-0.3-0.4-0.5c-0.2-0.2-0.3,0.1-0.5,0.2c-0.4,0.5-0.7,1-1,1.5c-0.1,0.2-0.3,0.3-0.1,0.5
	c0.1,0.1,0.3,0.2,0.5,0.2C38.3,67.1,39.6,65.4,39.6,65.1z"/>
<path class="st0" d="M20.6,61.9c-0.1-0.3-0.3-0.3-0.6-0.3c-0.4,0-1.6,1.4-1.5,1.8c0,0.3,0.2,0.5,0.5,0.5
	C19.2,64,20.6,62.1,20.6,61.9z"/>
<path class="st0" d="M35.4,30.4c0.5-0.7,1-1.3,1.4-1.9c0.2-0.3,0.1-0.5-0.1-0.7c-0.3-0.3-0.5-0.1-0.7,0.2
	C35.5,28.6,35,29.3,35.4,30.4z"/>
<path class="st0" d="M76.1,72.2c-0.3,0.4-0.7,0.8-1,1.2c-0.1,0.1-0.1,0.2-0.2,0.3c-0.2,0.3,0,0.5,0.2,0.7c0.1,0.1,0.3,0.1,0.4,0
	C76.2,74.2,76.5,73,76.1,72.2z"/>
<path class="st0" d="M62.6,84.6c-0.5,0.6-0.8,1-1.1,1.4c-0.1,0.2-0.5,0.5-0.2,0.7s0.7,0.5,1.1,0.5c0.4,0,0.2-0.5,0.3-0.8
	C62.6,85.9,62.6,85.4,62.6,84.6z"/>
<path class="st0" d="M83.2,39.3c1.1,0.4,1.5-0.4,1.9-1c0.2-0.2,0-0.4-0.2-0.6c-0.2-0.1-0.5-0.2-0.6,0.1C84,38.3,83.6,38.8,83.2,39.3
	z"/>
<path class="st0" d="M75.9,58c-0.3,0.4-0.5,0.6-0.6,0.8c-0.2,0.4-0.8,0.6-0.5,1.2c0.1,0.1,0.4,0.2,0.5,0.2c0.5-0.3,0.8-0.7,0.9-1.3
	C76.2,58.7,76,58.4,75.9,58z"/>
<path class="st0" d="M67.8,73.3c0.7-0.7,1-1.5,0.9-2.8C68.1,71.6,66.9,72.1,67.8,73.3z"/>
<path class="st0" d="M87.4,57c-0.5,0.4-0.9,0.9-1.1,1.5c-0.1,0.3,0.4,0.3,0.6,0.3c0.6-0.2,0.9-0.7,1.1-1.3C88,57.3,87.7,57,87.4,57z
	"/>
<path class="st0" d="M18.9,61.4c-0.2-0.3-0.5-0.4-0.7-0.3c-0.4,0.1-0.7,0.5-0.8,0.9c0,0.3,0.3,0.6,0.5,0.5
	C18.4,62.4,18.6,61.9,18.9,61.4z"/>
<path class="st0" d="M89.2,60.1c-0.1-0.7-0.3-1.3-0.7-1.8C87.6,59.4,87.7,59.6,89.2,60.1z"/>
<path class="st0" d="M77.6,46.9c0.8,0,1.4,0,1.6-0.7c0.1-0.3-0.1-0.5-0.3-0.5C78.1,45.7,78.1,46.4,77.6,46.9z"/>
<path class="st0" d="M35.1,79.8c-0.5,0.1-1.2-0.1-1.4,0.6c-0.1,0.3,0.2,0.4,0.3,0.4C34.8,80.9,34.9,80.2,35.1,79.8z"/>
<path class="st0" d="M77.7,74.8c-0.4-0.2-0.4-1-1-0.6c-0.2,0.1-0.5,0.5-0.3,0.7C76.8,75.2,77.2,75.1,77.7,74.8z"/>
<path class="st0" d="M85.5,39.3c0.6,0.1,1,0.2,1.3-0.4c0.1-0.3-0.1-0.5-0.3-0.5C85.8,38.3,85.8,38.9,85.5,39.3z"/>
<path class="st1" d="M5.8,52.9C5.9,29.4,23.3,9.4,46.5,6.1c1.9-0.3,3.8-0.4,5.7-0.5c0.7,0,0.9,0.1,0.9,0.8c0,1.8-0.1,3.5,0,5.3
	c0,0.8-0.3,0.9-1,0.9c-17,1-29.3,9.2-36.1,24.8c-10.2,23.7,5,51,30.4,55.2c1.9,0.3,3.7,0.5,5.6,0.5c0.8,0,1.1,0.2,1.1,1
	c-0.1,1.7-0.1,3.4,0,5c0,0.8-0.2,1-1,1c-14.4-0.6-26.3-6.3-35.5-17.3C9.6,74.4,5.8,63.6,5.8,52.9z"/>
<path class="st0" d="M52.9,51.7c0.8,5.7,1.6,11,2.4,16.4c0.1,0.5,0,0.9-0.6,0.9c-1.3,0.1-2.6,0.2-3.9,0c-0.5-0.1-0.7-0.2-0.6-0.8
	c0.8-5.2,1.6-10.5,2.5-15.7C52.7,52.3,52.8,52.2,52.9,51.7z"/>
<path class="st0" d="M61.4,66.5c0,0.4-0.3,0.4-0.6,0.6c-1,0.5-2.1,0.9-3.2,1.3c-0.7,0.2-1,0.1-1.1-0.7c-0.4-3-0.9-6.1-1.3-9.1
	c-0.3-1.9-0.6-3.8-0.9-5.7c0-0.2-0.2-0.5,0.1-0.6c0.3-0.2,0.4,0.1,0.5,0.3c2.1,4.5,4.2,8.9,6.3,13.4C61.3,66.3,61.3,66.4,61.4,66.5z
	"/>
<path class="st0" d="M51.5,51.8c-0.8,5.2-1.6,10.5-2.4,15.7c-0.1,0.9-0.4,1.2-1.3,0.8c-1-0.4-2-0.8-3-1.3c-0.4-0.2-0.6-0.4-0.4-0.8
	c2.3-4.8,4.6-9.7,6.9-14.5C51.4,51.7,51.5,51.8,51.5,51.8z"/>
<path class="st0" d="M55.7,51.6c0.5,0,0.6,0.2,0.8,0.4c3,3.3,5.9,6.6,8.9,9.8c0.6,0.6,0.5,1,0,1.6c-0.7,0.7-1.5,1.5-2.3,2.1
	c-0.6,0.5-0.8,0.3-1-0.3c-0.3-0.7-0.6-1.4-1-2.1C59.4,59.4,57.6,55.5,55.7,51.6z"/>
<path class="st0" d="M50,51.7c-0.9,1.9-1.7,3.7-2.6,5.6c-1.2,2.6-2.5,5.2-3.7,7.9c-0.3,0.7-0.6,0.7-1.2,0.3
	c-3.1-2.3-3.1-2.5-0.6-5.3c2.4-2.7,4.8-5.3,7.2-8c0.2-0.2,0.4-0.4,0.6-0.6C49.8,51.6,49.9,51.7,50,51.7z"/>
<path class="st0" d="M57.5,81.2c-0.1-0.8,0.2-1.5,0.6-2.1c6.7-9,13.3-18,20-27c0.2-0.3,0.3-1,0.9-0.6c0.5,0.4,0.2,0.8-0.1,1.1
	c-7,9.4-14,18.9-20.9,28.3C57.9,81.1,57.8,81.3,57.5,81.2z"/>
<path class="st0" d="M50.5,22.9c0.3,0.9,0.1,1.4-0.3,2c-6.5,8.8-13.1,17.7-19.6,26.5c-0.2,0.2-0.3,0.7-0.7,0.4
	c-0.4-0.3-0.3-0.7,0-1.2c1.3-1.8,2.7-3.6,4-5.4c5.2-7.1,10.5-14.2,15.7-21.3C49.9,23.6,50.1,23.4,50.5,22.9z"/>
<path class="st0" d="M48.8,50.6c-3.1,3.5-6.2,7-9.3,10.5c-0.4,0.4-0.6,0.4-0.9-0.1c0,0,0-0.1-0.1-0.1c-1.8-2.9-1.8-3.3,1.1-5
	c3-1.8,6-3.6,9-5.4C48.7,50.5,48.7,50.6,48.8,50.6z"/>
<path class="st0" d="M57.5,50.7c3.7,2.1,7.2,4.4,10.8,6.6c0.3,0.2,0.4,0.5,0.3,0.8c-0.1,0.1-0.1,0.2-0.1,0.3
	c-1.2,3.4-1.3,3.4-3.6,0.8C62.4,56.4,59.9,53.6,57.5,50.7C57.4,50.8,57.4,50.8,57.5,50.7z"/>
<path class="st0" d="M59,76.3c0.1-1,0.4-1.8,1-2.6c5.6-7.6,11.2-15.2,16.8-22.7c0.1-0.2,0.2-0.3,0.4-0.5c0.2-0.2,0.3-0.6,0.7-0.3
	c0.4,0.3,0.3,0.6,0,0.9c-1.2,1.6-2.4,3.3-3.6,4.9c-4.7,6.4-9.5,12.9-14.3,19.3C59.7,75.7,59.5,76.1,59,76.3z"/>
<path class="st0" d="M69,56.3c-3.8-2.4-7.5-4.7-11.3-7c0-0.1,0.1-0.2,0.1-0.2c1.9,0.5,3.8,1,5.7,1.6c1.7,0.5,3.3,1,5,1.4
	c0.6,0.2,0.9,0.5,0.9,1.2C69.3,54.2,69.3,55.2,69,56.3z"/>
<path class="st0" d="M48.1,49.2c-2.8,2-5.9,3.7-8.8,5.5c-0.6,0.4-1.2,0.7-1.8,1.1c-0.5,0.3-0.8,0.2-0.8-0.3
	c-0.1-0.9-0.1-1.8-0.1-2.7c0-0.4,0.2-0.6,0.6-0.7C40.7,51.1,44.3,50.1,48.1,49.2L48.1,49.2z"/>
<path class="st0" d="M58.1,47.7c3.2,0,6.4,0,9.6,0c0.9,0,0.9,0.6,1.1,1.2c0.2,0.6,0.7,1.4,0.2,1.9c-0.4,0.4-1.2-0.1-1.8-0.3
	c-3-0.8-6-1.7-9.1-2.5C58.1,47.8,58.1,47.7,58.1,47.7z"/>
<path class="st0" d="M47.6,47.9c-3.4,1-6.8,1.9-10.2,2.9c-0.2,0.1-0.6,0.2-0.6-0.3c0-0.9,0.3-1.7,0.6-2.5c0.3-0.6,0.9-0.3,1.4-0.3
	c2.9,0,5.8,0,8.7,0C47.6,47.7,47.6,47.8,47.6,47.9z"/>
<path class="st0" d="M38.2,36.5c0.4,0.9,0.2,1.5-0.2,2c-2.7,3.7-5.5,7.4-8.2,11c-0.2,0.2-0.3,0.8-0.7,0.5c-0.4-0.2-0.3-0.7-0.1-1.1
	C32,45,35.1,40.8,38.2,36.5z"/>
<path class="st0" d="M40.8,34.5c0-1,0.3-1.9,0.9-2.7c2.7-3.6,5.3-7.2,8-10.8c0.8,0.6,0.4,1.1,0,1.6c-2.5,3.3-4.9,6.6-7.4,9.9
	C41.9,33.2,41.5,34,40.8,34.5L40.8,34.5z"/>
<path class="st0" d="M48,46.5c-3.1,0-6.1,0-9.2,0c-0.2,0-0.5,0.1-0.6-0.3c-0.1-0.7,1.4-2.3,2.2-2.1c2.4,0.7,4.8,1.4,7.3,2
	C47.7,46.2,47.9,46.2,48,46.5z"/>
<path class="st0" d="M57.9,46.3c1.3-0.4,2.6-0.8,3.8-1.1c1-0.3,2-0.6,3-0.8c1.5-0.4,2.5,0.2,2.9,1.7c0.1,0.6-0.2,0.5-0.5,0.5
	c-3,0-6.1,0-9.1,0C57.9,46.4,57.9,46.3,57.9,46.3z"/>
<path class="st0" d="M39.8,40.4c3-4.1,6-8.2,9.2-12.6c-0.1,1.4-0.4,2.3-1,3.2c-1.7,2.2-3.3,4.5-5,6.7c-0.8,1.2-1.9,2-3,2.9
	C39.9,40.5,39.8,40.5,39.8,40.4z"/>
<path class="st0" d="M37.5,81c2.2-3,4.2-5.9,6.5-8.7c0.7-0.8,1.1-1.8,1.8-2.5c0.3-0.3,0.5-0.6,1-0.3c0.5,0.4,0,0.6-0.2,0.8
	c-2.5,3.3-4.9,6.7-7.4,10C38.8,80.9,38.4,81.2,37.5,81z"/>
<path class="st0" d="M57.8,83.6c-0.3-0.4-0.3-0.9,0-1.3c2.6-3.5,5.2-7,7.9-10.7c0,1,0,1.6-0.4,2.2c-2.4,3.2-4.7,6.4-7.1,9.5
	C58.2,83.5,58.1,83.7,57.8,83.6z"/>
<path class="st0" d="M39.8,80.7c2.6-3.6,5.2-7,7.8-10.5c0.3-0.4,0.6-0.4,0.9-0.2c0.5,0.3,0,0.6-0.1,0.8c-2.2,3.1-4.5,6.1-6.7,9.2
	C41.2,80.5,40.6,80.6,39.8,80.7z"/>
<path class="st0" d="M69.8,47.5c-0.6-0.6-0.5-1-0.1-1.5c2.1-2.8,4.2-5.7,6.3-8.5c0.4-0.5,0.8-0.6,1.4-0.3
	C74.9,40.6,72.4,44,69.8,47.5z"/>
<path class="st0" d="M34.7,55.9c0.5,0.7,0.4,1.2,0,1.7c-2,2.7-4,5.5-6,8.2c-0.2,0.3-0.4,0.6-0.8,0.7c-0.2,0-0.4,0-0.6-0.1
	c-0.2-0.2,0-0.4,0.1-0.5C29.8,62.5,32.2,59.2,34.7,55.9z"/>
<path class="st0" d="M52.5,79.6c0-2.2,5.9-10.3,8-10.9C57.8,72.4,55.3,75.9,52.5,79.6z"/>
<path class="st0" d="M69.6,59.2c0.1-1.1,0.4-2,1.1-2.9c1.6-2.2,3.3-4.4,4.9-6.7c0.1-0.2,0.3-0.4,0.4-0.6c0.2-0.3,0.5-0.2,0.7,0
	c0.3,0.2,0.2,0.4,0,0.7C74.3,52.9,72,56.1,69.6,59.2L69.6,59.2z"/>
<path class="st0" d="M42.8,79.6c2.2-3,4.4-6,6.6-8.9c0.3-0.4,0.8-0.6,1.1-0.3c0.3,0.3-0.1,0.6-0.3,0.9c-1.7,2.4-3.5,4.7-5.2,7
	C44.4,79.1,43.7,79.5,42.8,79.6z"/>
<path class="st0" d="M61.7,26.1c-0.7,1.8-1.9,3-2.9,4.4c-1,1.6-2.2,3-3.3,4.5c-0.4,0.5-0.7,0.8-1.4,0.5
	C55.1,33.5,60.6,26.4,61.7,26.1z"/>
<path class="st0" d="M70.7,55.1c-0.2-1,0-1.7,0.5-2.3c1.8-2.4,3.6-4.9,5.4-7.3c0.2-0.3,0.5-0.9,1-0.5s0,0.7-0.2,1
	c-0.5,0.7-0.9,1.5-1.8,1.8c-0.1,0-0.3,0.2-0.3,0.3c0.4,1-0.6,1.5-1,2.1C73.2,51.7,72,53.3,70.7,55.1z"/>
<path class="st0" d="M64.8,75.8c0,1.2-0.4,2.1-1,2.9c-1.5,2.1-3,4.1-4.5,6.2c-0.2,0.2-0.3,0.7-0.7,0.3c-0.3-0.2-0.3-0.5-0.1-0.8
	C60.6,81.5,62.7,78.7,64.8,75.8z"/>
<path class="st0" d="M75.3,37.1c-0.1,0.2-0.3,0.4-0.5,0.7c-1.8,2.4-3.6,4.8-5.4,7.2c-0.2,0.2-0.3,0.7-0.7,0.5
	c-0.4-0.2-0.3-0.7-0.1-1.1c0.5-0.7,1.1-1.5,1.6-2.2c1.2-1.6,2.4-3.2,3.5-4.8c0.2-0.3,0.5-0.7,0.9-0.6C75.1,36.8,75.3,36.8,75.3,37.1
	z"/>
<path class="st0" d="M59.2,27.2c-2.1,2.8-4,5.5-6,8.2c-0.3,0.4-0.7,0.4-1.3,0.2c2-2.7,3.9-5.3,5.8-7.9C58,27.2,58.4,27,59.2,27.2z"
	/>
<path class="st0" d="M68.3,29.3c-2.1,2.8-4.1,5.5-6,8.2c-0.2,0.3-0.5,0.5-0.9,0.3c-0.4-0.3-0.1-0.6,0.1-0.8c1.7-2.4,3.5-4.7,5.3-7.1
	C67.1,29.4,67.5,29.1,68.3,29.3z"/>
<path class="st0" d="M56.7,27.6c-1.9,2.6-3.7,4.9-5.4,7.3c-0.5,0.7-1,1-1.9,0.9c1.9-2.5,3.7-5,5.6-7.5C55.5,27.7,56,27.7,56.7,27.6z
	"/>
<path class="st0" d="M48.1,45c-2.3-0.7-4.7-1.3-7-2c-0.4-0.1-0.6-0.3-0.2-0.7c0.9-1.2,1.3-1.3,2.6-0.5c1.6,1,3.2,2,4.7,2.9
	C48.1,44.9,48.1,45,48.1,45z"/>
<path class="st0" d="M65.6,42.8c-2.8,0.8-5.2,1.6-7.8,1.9c1.8-1.1,3.5-2.2,5.3-3.2C64.4,40.7,64.5,42.3,65.6,42.8z"/>
<path class="st0" d="M35.2,58c0.5,0.7,0.4,1.2,0,1.7c-1.5,2-3,4.1-4.6,6.1c-0.2,0.3-0.4,0.6-0.7,0.6c-0.2,0-0.4,0-0.6-0.1
	c-0.2-0.2,0-0.4,0.1-0.5C31.4,63.2,33.3,60.6,35.2,58z"/>
<path class="st0" d="M33.2,39.3c-0.1-0.9,0-1.7,0.6-2.5c1.5-2,3-4,4.5-6.1c0.3,0.5,0.5,0.9,0.2,1.4C36.7,34.5,34.9,36.9,33.2,39.3z"
	/>
<path class="st0" d="M65.8,29.8c-1.8,2.4-3.5,4.7-5.1,7c-0.2,0.3-0.5,0.5-0.9,0.3c-0.5-0.3,0-0.6,0.1-0.9c1.4-2,2.9-3.9,4.3-5.9
	C64.6,29.8,65,29.6,65.8,29.8z"/>
<path class="st0" d="M32.9,42.2c-0.2-0.8,0-1.4,0.5-2.1c1.6-2.1,3.2-4.3,4.8-6.5C38.4,35.1,34.8,40.8,32.9,42.2L32.9,42.2z"/>
<path class="st0" d="M30.5,54c-0.1-0.8,0.2-1.5,0.7-2.2c1.5-1.9,2.9-3.8,4.3-5.8c0.2-0.2,0.3-0.6,0.8-0.6c-0.2,1-0.5,1.9-1.1,2.6
	c-1.3,1.9-2.7,3.7-4.1,5.6C30.9,53.9,30.7,53.9,30.5,54L30.5,54z"/>
<path class="st0" d="M57.5,74.2c2.1-2.7,3.6-5.8,6.6-7.8c0.2,0.4-0.1,0.6-0.2,0.8c-1.3,1.8-2.7,3.6-4,5.4c-0.6,0.8-1.2,1.5-2.2,1.8
	C57.6,74.3,57.6,74.3,57.5,74.2z"/>
<path class="st0" d="M46.9,36.4c1.8-2.4,3.4-4.6,5-6.8c0.1-0.2,0.3-0.3,0.5-0.4c0.3-0.1,0.6-0.5,0.8-0.1c0.2,0.3-0.1,0.5-0.2,0.7
	c-1.4,1.9-2.8,3.8-4.2,5.8C48.3,36.1,47.8,36.3,46.9,36.4z"/>
<path class="st0" d="M70.7,52.1c-0.3-1-0.1-1.5,0.4-2.1c1.3-1.7,2.6-3.5,3.9-5.3c0.2-0.3,0.5-0.9,1-0.5c0.6,0.5,0,0.8-0.2,1
	C74.1,47.5,72.5,49.7,70.7,52.1z"/>
<path class="st0" d="M34.8,49.9c0,1.1-0.1,1.7-0.5,2.3c-1.3,1.8-2.6,3.5-3.9,5.3c-0.2,0.3-0.4,0.7-0.9,0.3c-0.4-0.4,0-0.6,0.2-0.9
	C31.3,54.7,32.9,52.4,34.8,49.9z"/>
<path class="st0" d="M73.5,36.8c-1.7,2.3-3.4,4.6-5,6.8c-0.1,0.2-0.3,0.4-0.6,0.1c-0.2-0.2-0.3-0.5-0.1-0.8c0.2-0.3,0.4-0.7,0.7-1
	c1.2-1.6,2.4-3.2,3.5-4.8C72.3,36.7,72.7,36.5,73.5,36.8z"/>
<path class="st0" d="M35,72.7c1.6-2.2,3.2-4.4,4.8-6.6c0.2-0.2,0.3-0.5,0.7-0.3c0.3,0.2,0.4,0.5,0.2,0.8c-0.5,0.6-0.9,1.2-1.4,1.8
	c-0.9,1.2-1.9,2.5-2.8,3.8C36.2,72.8,35.8,73,35,72.7z"/>
<path class="st0" d="M30.7,59.9c-0.1,0.1-0.2,0.3-0.4,0.5c-1.3,1.8-2.6,3.5-3.9,5.3c-0.1,0.2-0.2,0.3-0.4,0.5
	c-0.3,0.2-0.6,0.3-0.9,0.1c-0.4-0.3,0-0.6,0.2-0.8c1.3-1.8,2.7-3.7,4-5.5c0.2-0.3,0.5-0.7,1-0.6C30.6,59.5,30.8,59.5,30.7,59.9z"/>
<path class="st0" d="M74.4,61.2c0,0.4-0.2,0.6-0.3,0.8c-1.2,1.6-2.4,3.3-3.6,4.9c-0.3,0.4-0.5,0.8-1,0.4c-0.6-0.4,0.1-0.7,0.2-0.9
	c1.3-1.8,2.6-3.5,3.9-5.3c0.1-0.2,0.3-0.5,0.5-0.4C74.2,60.8,74.3,61.1,74.4,61.2z"/>
<path class="st0" d="M28.6,59.7c-1.3,2.2-2.9,4.1-4.4,6.1c-0.4,0.5-0.8,0.3-1.4,0.2c1.5-2,2.9-3.9,4.3-5.7
	C27.5,59.9,27.9,59.6,28.6,59.7L28.6,59.7z"/>
<path class="st0" d="M70.9,34.4c-1.6,2.2-3.1,4.2-4.6,6.3c-0.2,0.3-0.4,0.5-0.8,0.2s-0.2-0.5,0-0.8c1.3-1.8,2.7-3.6,4-5.4
	C69.9,34.3,70.3,34.1,70.9,34.4z"/>
<path class="st0" d="M44.1,37.3c1.4-2,2.9-4,4.3-6c0.2-0.2,0.2-0.8,0.6-0.5c0.4,0.3,0.4,0.7,0.1,1.1c-0.9,1.1-1.7,2.2-2.5,3.4
	c-0.3,0.4-0.5,0.7-0.8,1.1C45.4,37,44.8,37.3,44.1,37.3C44.2,37.4,44.2,37.4,44.1,37.3z"/>
<path class="st0" d="M32.9,42.2c0,0.7-0.5,1-0.9,1.5c-1.1,1.5-2.2,3-3.3,4.4c-0.2,0.2-0.2,0.7-0.7,0.4c-0.2-0.2-0.4-0.6-0.2-0.9
	c1.3-1.8,2.6-3.6,4-5.4C32.2,41.8,32.6,42.3,32.9,42.2L32.9,42.2z"/>
<path class="st0" d="M31.3,66.3c1.5-2,2.9-4,4.4-5.9c0.1-0.2,0.2-0.4,0.4-0.3c0.2,0.2,0.4,0.5,0.3,0.8c-0.2,0.3-0.4,0.6-0.6,0.9
	c-1,1.3-1.9,2.6-2.9,4C32.5,66.3,32.1,66.5,31.3,66.3z"/>
<path class="st0" d="M63,30.2c0.2,0.4,0,0.5-0.1,0.7c-1.2,1.7-2.5,3.3-3.7,5c-0.3,0.4-0.6,0.8-1.1,0.4c-0.5-0.4,0.1-0.7,0.3-1
	c1-1.4,2-2.8,3-4.2C61.8,30.7,62.3,30.4,63,30.2z"/>
<path class="st0" d="M48.7,43.6c-1.5-0.9-3.1-1.8-4.6-2.8c-0.3-0.2-1-0.3-0.5-0.8c0.4-0.4,1-1.3,1.8-0.5c1.2,1.3,2.4,2.5,3.4,3.9
	C48.8,43.6,48.8,43.6,48.7,43.6z"/>
<path class="st0" d="M70.4,49.7C70,49,70,48.5,70.4,48c1.1-1.4,2.1-2.8,3.1-4.2c0.2-0.3,0.5-0.6,0.9-0.3c0.5,0.3,0.1,0.6-0.1,0.9
	C73,46.1,71.7,47.8,70.4,49.7z"/>
<path class="st0" d="M67,42.4c-0.4-0.2-0.7-0.5-0.3-0.9c1.2-1.6,2.3-3.1,3.5-4.7c0.3-0.4,0.7-0.5,1-0.2c0.4,0.3-0.1,0.6-0.2,0.8
	c-1.1,1.5-2.2,3-3.3,4.4C67.5,42,67.3,42.3,67,42.4z"/>
<path class="st0" d="M68.9,34.2c-1.4,1.9-2.7,3.7-4,5.5c-0.2,0.2-0.3,0.3-0.6,0.1c-0.2-0.2-0.3-0.4-0.1-0.7c1.2-1.6,2.3-3.2,3.5-4.8
	C68,33.9,68.4,34,68.9,34.2z"/>
<path class="st0" d="M79.5,37.3c-1.3,1.8-2.6,3.5-3.9,5.3c-0.3,0.4-0.7,0.5-1,0.2s0.1-0.6,0.3-0.8c1.1-1.4,2.2-2.9,3.2-4.3
	C78.4,37.2,78.8,36.9,79.5,37.3z"/>
<path class="st0" d="M57.2,43.2c0.9-1.3,2.1-2.4,3.1-3.6c0.4-0.4,1.8-0.1,2,0.5c0.1,0.3-0.2,0.4-0.3,0.5c-1.5,0.9-3,1.8-4.6,2.8
	C57.4,43.4,57.3,43.3,57.2,43.2z"/>
<path class="st0" d="M37.3,72.6c1.4-2,2.7-3.7,4-5.5c0.2-0.3,0.4-0.3,0.7-0.1c0.3,0.2,0.3,0.4,0.1,0.7C41,69.1,40,70.6,38.9,72
	C38.5,72.5,38,72.5,37.3,72.6z"/>
<path class="st0" d="M74.7,62.5c0.4,0.7,0.4,1.1,0,1.6c-1,1.3-2,2.7-3,4c-0.2,0.3-0.3,0.7-0.8,0.3c-0.4-0.3-0.2-0.6,0-0.9
	C72.1,65.9,73.4,64.2,74.7,62.5z"/>
<path class="st0" d="M27.5,46.8c-0.4-0.3-0.6-0.6-0.3-1.1c1-1.4,2.1-2.8,3.1-4.2c0.2-0.3,0.5-0.2,0.7,0s0.3,0.4,0.1,0.6
	c-1.1,1.5-2.2,3-3.3,4.5C27.7,46.7,27.6,46.7,27.5,46.8z"/>
<path class="st0" d="M47.5,76.2c1.3-1.8,2.6-3.5,3.9-5.3c0.3-0.4,0.7-0.7,1.1-0.3c0.3,0.3-0.1,0.6-0.3,0.9c-1.3,1.8-2.7,3.6-4.5,4.9
	C47.6,76.3,47.5,76.3,47.5,76.2z"/>
<path class="st0" d="M33.9,34.9c0.4-2.5,2.1-3.9,3.3-5.7c0.1-0.2,0.4-0.4,0.6-0.1c0.2,0.3,0.2,0.7,0,1c-0.7,0.9-1.3,1.9-2.1,2.8
	C35.2,33.6,34.9,34.3,33.9,34.9z"/>
<path class="st0" d="M34.5,53.2c0.3,0.9,0.1,1.5-0.3,2.1c-0.8,1.1-1.6,2.2-2.4,3.3c-0.2,0.3-0.4,0.7-0.8,0.3
	c-0.4-0.3-0.1-0.6,0.1-0.9C32.1,56.5,33.2,54.9,34.5,53.2z"/>
<path class="st0" d="M55.7,42.9c0.4-1.6,1.3-3.1,2-4.5c0.4-0.7,1-0.1,1.4,0.1c0.7,0.3,0,0.7-0.2,0.9C57.9,40.5,56.8,41.7,55.7,42.9
	L55.7,42.9z"/>
<path class="st0" d="M77.1,57.5c-0.4-0.1-0.7-0.3-0.3-0.8c1-1.3,1.9-2.6,2.9-3.9c0.2-0.3,0.5-0.4,0.8-0.2s0.2,0.5,0,0.7
	c-1,1.3-1.9,2.6-2.9,3.9C77.4,57.4,77.3,57.5,77.1,57.5z"/>
<path class="st0" d="M49.9,42.7c-1-1.1-2.1-2.2-3.1-3.3c-0.2-0.2-0.9-0.5-0.2-0.9c0.5-0.3,1.1-0.9,1.6,0.1c0.6,1.3,1.2,2.7,1.8,4
	L49.9,42.7z"/>
<path class="st0" d="M82.2,53.9c-0.1,0.1-0.2,0.2-0.3,0.4c-0.8,1.1-1.6,2.2-2.4,3.3c-0.3,0.4-0.6,0.8-1.1,0.4
	c-0.5-0.4,0.1-0.7,0.3-1c0.8-1.1,1.6-2.2,2.4-3.3c0.2-0.3,0.4-0.6,0.8-0.3C82.1,53.5,82.3,53.6,82.2,53.9z"/>
<path class="st0" d="M33.4,66.3c1.1-1.5,2.1-2.9,3.2-4.3c0.1-0.2,0.3-0.5,0.5-0.2c0.2,0.2,0.4,0.5,0.2,0.8c-0.9,1.1-1.7,2.3-2.5,3.4
	C34.4,66.5,33.9,66.4,33.4,66.3z"/>
<path class="st0" d="M75.2,64.7c0.3,0.8,0.3,1.3-0.1,1.8c-0.7,1-1.4,2-2.2,3c-0.2,0.2-0.3,0.8-0.8,0.5c-0.4-0.3-0.3-0.6,0-1
	C73.1,67.5,74.1,66.2,75.2,64.7z"/>
<path class="st0" d="M25.2,61.4c-1,1.4-1.9,2.7-2.9,4.1c-0.2,0.4-0.5,0.5-0.9,0.2c-0.5-0.3-0.1-0.5,0.1-0.8c0.7-1,1.5-2,2.3-3.1
	C24.1,61.4,24.6,61.4,25.2,61.4C25.2,61.3,25.2,61.4,25.2,61.4z"/>
<path class="st0" d="M26.8,45c-0.5-0.6-0.4-1.1-0.1-1.5c0.8-1,1.5-2,2.3-3c0.2-0.2,0.3-0.6,0.6-0.3c0.3,0.2,0.4,0.6,0.1,0.9
	c-0.6,0.8-1.2,1.6-1.8,2.4C27.6,44,27.2,44.5,26.8,45z"/>
<path class="st0" d="M26.2,42.9c-0.2-1.3,1-3.5,2.7-4.9C29.2,39.1,28.9,39.7,26.2,42.9z"/>
<path class="st0" d="M54.2,42.2c0.2-1.4,0.4-2.8,0.6-4.2c0.1-0.8,0.7-0.6,1.2-0.5c0.8,0.2,0.4,0.6,0.2,1c-0.6,1.3-1.2,2.5-1.8,3.8
	C54.4,42.3,54.3,42.3,54.2,42.2z"/>
<path class="st0" d="M65.8,34c0.3,0.6,0.5,1,0.1,1.4c-0.8,1-1.5,2-2.3,3.1c-0.2,0.3-0.4,0.5-0.8,0.3c-0.3-0.2-0.3-0.4-0.1-0.7
	C63.8,36.7,64.8,35.3,65.8,34z"/>
<path class="st0" d="M51.4,42.5c-0.7-1.5-1.4-2.9-2.1-4.4c-0.2-0.5,0.2-0.5,0.5-0.6c0.4-0.1,1-0.4,1.1,0.4c0.2,1.5,0.5,3,0.7,4.5
	C51.6,42.4,51.5,42.4,51.4,42.5z"/>
<path class="st0" d="M52.8,42.2c-0.2-1.5-0.5-2.9-0.7-4.4c-0.1-0.6,0.4-0.6,0.8-0.6c0.4,0,0.9-0.1,0.8,0.6c-0.2,1.5-0.5,2.9-0.7,4.4
	C52.9,42.2,52.9,42.2,52.8,42.2z"/>
<path class="st0" d="M83.7,54.7c-0.1,0.1-0.2,0.3-0.3,0.4c-0.7,0.9-1.3,1.8-2,2.7c-0.3,0.4-0.7,0.7-1.1,0.4
	c-0.5-0.4,0.1-0.7,0.3-0.9c0.7-0.9,1.4-1.9,2-2.8c0.2-0.2,0.4-0.4,0.7-0.3C83.6,54.3,83.7,54.4,83.7,54.7z"/>
<path class="st0" d="M67.1,32.5c1.2-1.4,1.7-3.5,3.9-4.1C69.8,29.9,69.2,31.9,67.1,32.5z"/>
<path class="st0" d="M53.7,74.7c0.5-1.4,0.9-2.8,2-4c0.5-0.5,0.9-0.9,1.8-0.9C56.3,71.6,55.1,73.2,53.7,74.7
	C53.8,74.8,53.7,74.8,53.7,74.7z"/>
<path class="st0" d="M39.9,72c1-1.4,1.9-2.6,2.8-3.8c0.2-0.3,0.4-0.4,0.8-0.2c0.4,0.3,0.2,0.6,0,0.8C42.4,69.8,42,71.6,39.9,72z"/>
<path class="st0" d="M59.3,32.5c0,0.4-0.3,0.7-0.5,0.9c-0.5,0.7-1.1,1.5-1.6,2.2c-0.3,0.4-0.6,0.6-1,0.3c-0.6-0.4,0-0.6,0.2-0.8
	c0.7-0.9,1.4-1.9,2-2.8c0.1-0.2,0.2-0.5,0.5-0.3C59.1,32.1,59.2,32.4,59.3,32.5z"/>
<path class="st0" d="M26.3,56.8c-0.1-0.1-0.3-0.1-0.5-0.2c-0.2-0.2,0-0.4,0.1-0.5c0.7-0.9,1.3-1.8,2-2.7c0.3-0.4,0.7-0.5,1-0.3
	c0.5,0.3-0.1,0.6-0.2,0.8c-0.5,0.8-1.1,1.5-1.7,2.3C26.9,56.4,26.7,56.7,26.3,56.8z"/>
<path class="st0" d="M75.4,67.2c0.4,0.7,0.4,1.2-0.1,1.8c-0.5,0.6-1,1.3-1.5,2c-0.2,0.2-0.3,0.6-0.7,0.3c-0.3-0.3-0.3-0.6-0.1-1
	C73.8,69.4,74.6,68.3,75.4,67.2z"/>
<path class="st0" d="M39.4,77c-0.9,1.3-1.8,2.5-2.7,3.8c-0.3,0.4-0.5,0.7-1,0.3c-0.5-0.4,0-0.6,0.2-0.9c0.9-1.3,2.1-2.4,3.3-3.4
	C39.3,76.9,39.4,77,39.4,77z"/>
<path class="st0" d="M24.5,56.3c-0.4-0.1-0.7-0.3-0.3-0.8c0.6-0.8,1.2-1.7,1.9-2.5c0.2-0.3,0.7-0.4,1-0.2c0.4,0.3-0.1,0.5-0.2,0.8
	c-0.5,0.8-1.1,1.5-1.6,2.2C25,56.1,24.9,56.4,24.5,56.3z"/>
<path class="st0" d="M82,58.3c0.7-1,1.5-2,2.2-3c0.2-0.3,0.4-0.5,0.8-0.2c0.3,0.2,0.2,0.5,0.1,0.7c-0.6,0.8-1.2,1.6-1.8,2.4
	C83,58.7,82.6,58.6,82,58.3z"/>
<path class="st0" d="M30.5,53.9c-0.2,1.3-1.3,2.1-2,3.2c-0.2,0.3-0.5,0.1-0.7,0c-0.3-0.2-0.1-0.4,0-0.6c0.6-0.8,1.2-1.6,1.7-2.4
	C29.9,53.6,30.2,53.8,30.5,53.9C30.5,54,30.5,53.9,30.5,53.9z"/>
<path class="st0" d="M22.9,61.7c-0.8,1.1-1.5,2-2.1,2.9c-0.2,0.3-0.5,0.5-0.9,0.2S19.8,64.2,20,64C20.9,63.2,21.1,61.7,22.9,61.7z"
	/>
<path class="st0" d="M38.5,63.8c-0.1,0.2-0.2,0.4-0.3,0.5c-0.5,0.7-1,1.3-1.5,2c-0.3,0.4-0.6,0.3-0.9,0.1c-0.4-0.3,0-0.5,0.2-0.7
	c0.5-0.7,1.1-1.5,1.6-2.2c0.1-0.2,0.3-0.4,0.6-0.2C38.2,63.5,38.3,63.7,38.5,63.8z"/>
<path class="st0" d="M54.9,70.4c-0.9,0.9-1,2.7-2.9,2.6C52.9,72.1,53,70.3,54.9,70.4z"/>
<path class="st0" d="M83.9,58.6c0.7-0.9,1.2-1.6,1.8-2.4c0.2-0.3,0.5-0.4,0.8-0.1c0.3,0.3,0.2,0.4,0,0.7c-0.4,0.5-0.8,1.1-1.2,1.6
	C85,58.8,84.5,58.7,83.9,58.6z"/>
<path class="st0" d="M68.5,67.9c0.2,1.1-0.6,3-1.4,3.4c-0.2,0.1-0.3,0.1-0.5,0c-0.3-0.3-0.2-0.6,0-0.9
	C67.2,69.7,67.8,68.9,68.5,67.9z"/>
<path class="st0" d="M75.7,69.7c0.3,0.9-0.6,2.9-1.2,3.3c-0.3,0.1-0.4,0-0.5-0.1c-0.2-0.3-0.3-0.5,0-0.8
	C74.6,71.3,75.1,70.6,75.7,69.7z"/>
<path class="st0" d="M80.8,39.9c0.4-1,1.2-1.7,1.7-2.5c0.2-0.3,0.5-0.4,0.8-0.2c0.5,0.3,0.1,0.5-0.1,0.8
	C82.7,38.9,82.1,39.8,80.8,39.9z"/>
<path class="st0" d="M36.1,70.1c-0.6,0.8-1.2,1.6-1.8,2.4c-0.3,0.4-0.7,0.3-1,0.1c-0.4-0.3,0.1-0.6,0.2-0.8
	C34.1,70.9,35.1,70.5,36.1,70.1z"/>
<path class="st0" d="M42.7,71c0.6-0.7,1.1-1.4,1.6-2.1c0.3-0.4,0.5-0.2,0.8-0.1c0.4,0.2,0.1,0.5,0,0.7C44.4,70.2,44.1,71.3,42.7,71z
	"/>
<path class="st0" d="M39.6,65.1c0,0.3-1.3,2-1.5,2s-0.4-0.1-0.5-0.2c-0.2-0.2,0-0.4,0.1-0.5c0.3-0.5,0.7-1,1-1.5
	c0.1-0.1,0.2-0.4,0.5-0.2C39.3,64.8,39.5,65,39.6,65.1z"/>
<path class="st0" d="M20.6,61.9c0,0.2-1.4,2.1-1.6,2c-0.3,0-0.5-0.3-0.5-0.5c-0.1-0.4,1.2-1.8,1.5-1.8
	C20.3,61.6,20.6,61.6,20.6,61.9z"/>
<path class="st0" d="M35.4,30.4c-0.4-1.1,0.1-1.8,0.7-2.5c0.2-0.2,0.4-0.4,0.7-0.2c0.2,0.2,0.3,0.4,0.1,0.7
	C36.4,29.1,35.9,29.7,35.4,30.4z"/>
<path class="st0" d="M24.8,53.2c-0.1,0.8-0.8,1.3-1.2,1.9c-0.2,0.3-0.4,0.4-0.7,0.2c-0.3-0.2-0.3-0.4-0.1-0.7
	C23.2,53.8,23.8,53.2,24.8,53.2L24.8,53.2z"/>
<path class="st0" d="M28.8,35.5c0.2,1.7-1.3,2.3-2,3.5C27.2,37.6,27.8,36.4,28.8,35.5L28.8,35.5z"/>
<path class="st0" d="M76.1,72.2c0.4,0.8,0.1,2-0.5,2.3c-0.2,0.1-0.3,0.1-0.4,0c-0.2-0.2-0.4-0.4-0.2-0.7c0.1-0.1,0.1-0.2,0.2-0.3
	C75.4,73,75.8,72.6,76.1,72.2z"/>
<path class="st0" d="M62.6,84.6c0,0.7,0,1.2,0,1.7c0,0.3,0.2,0.8-0.3,0.8c-0.3,0-0.8-0.2-1.1-0.5c-0.3-0.2,0.1-0.5,0.2-0.7
	C61.8,85.6,62.2,85.2,62.6,84.6z"/>
<path class="st0" d="M83.2,39.3c0.4-0.6,0.7-1,1-1.5c0.2-0.2,0.4-0.2,0.6-0.1c0.2,0.1,0.4,0.3,0.2,0.6
	C84.7,38.9,84.4,39.7,83.2,39.3z"/>
<path class="st0" d="M75.9,58c0.2,0.4,0.4,0.7,0.3,0.9c-0.1,0.5-0.4,1-0.9,1.3c-0.1,0.1-0.5,0-0.5-0.2c-0.3-0.6,0.3-0.8,0.5-1.2
	C75.4,58.6,75.6,58.4,75.9,58z"/>
<path class="st0" d="M67.8,73.3c-0.9-1.2,0.3-1.7,0.9-2.8C68.8,71.8,68.5,72.6,67.8,73.3z"/>
<path class="st0" d="M87.4,57c0.3,0,0.6,0.3,0.6,0.5c-0.1,0.6-0.4,1.1-1.1,1.3c-0.2,0.1-0.7,0-0.6-0.3C86.5,57.9,86.9,57.4,87.4,57z
	"/>
<path class="st0" d="M18.9,61.4c-0.3,0.4-0.5,1-1,1.2c-0.2,0.1-0.5-0.3-0.5-0.5c0-0.5,0.3-0.8,0.8-0.9C18.4,61,18.7,61.1,18.9,61.4z
	"/>
<path class="st0" d="M89.2,60.1c-1.5-0.5-1.6-0.7-0.7-1.8C88.9,58.9,89.1,59.4,89.2,60.1z"/>
<path class="st0" d="M77.6,46.9c0.5-0.5,0.5-1.3,1.3-1.2c0.2,0,0.4,0.3,0.3,0.5C79,46.9,78.4,47,77.6,46.9z"/>
<path class="st0" d="M35.1,79.8c-0.3,0.5-0.3,1.2-1.1,1c-0.2,0-0.4-0.1-0.3-0.4C34,79.7,34.6,79.9,35.1,79.8z"/>
<path class="st0" d="M77.7,74.8c-0.5,0.3-1,0.4-1.3,0.1c-0.2-0.2,0.1-0.5,0.3-0.7C77.4,73.8,77.4,74.6,77.7,74.8z"/>
<path class="st0" d="M85.5,39.3c0.3-0.4,0.3-1,1-0.9c0.2,0,0.5,0.2,0.3,0.5C86.5,39.5,86.1,39.4,85.5,39.3z"/>
<path class="st0" d="M57.7,74.4c-0.1,0.2-0.3,0.2-0.4,0.1c0.1-0.1,0.2-0.2,0.3-0.3C57.6,74.3,57.6,74.3,57.7,74.4z"/>
<path class="st0" d="M47.3,76.7c-0.1,0.1-0.2,0.1-0.2,0.2c0,0,0-0.1-0.1-0.1C47.1,76.8,47.2,76.8,47.3,76.7L47.3,76.7z"/>
<path class="st0" d="M47.7,76.4c-0.1,0.1-0.2,0.2-0.4,0.4l0,0c-0.1-0.2,0-0.4,0.2-0.5C47.5,76.3,47.6,76.3,47.7,76.4z"/>
<path class="st0" d="M56.9,43.6c0.1-0.1,0.2-0.2,0.4-0.4c0.1,0.1,0.1,0.1,0.2,0.2C57.3,43.5,57.1,43.6,56.9,43.6
	C56.9,43.7,56.9,43.6,56.9,43.6z"/>
<path class="st0" d="M57.3,50.9c-0.1-0.1-0.2-0.1-0.3-0.2c0.2-0.2,0.3-0.1,0.5,0C57.4,50.8,57.4,50.8,57.3,50.9z"/>
<path class="st0" d="M48.8,43.5c0.1,0.1,0.3,0.2,0.4,0.3l0,0C49,43.8,48.8,43.8,48.8,43.5C48.8,43.6,48.8,43.6,48.8,43.5z"/>
<path class="st0" d="M48,49.1c0.1-0.1,0.2-0.1,0.3-0.1c0,0,0.1,0,0.1,0.1C48.2,49.1,48.1,49.1,48,49.1C48.1,49.2,48,49.1,48,49.1z"
	/>
<path class="st0" d="M44.3,37.5c-0.1,0.1-0.2,0.2-0.3,0c0,0,0.1-0.1,0.1-0.2C44.2,37.4,44.2,37.4,44.3,37.5z"/>
<path class="st0" d="M48.9,50.3L48.9,50.3C49.2,50.3,49.1,50.3,48.9,50.3L48.9,50.3z"/>
<path class="st0" d="M49.2,43.9L49.2,43.9L49.2,43.9z"/>
<path class="st0" d="M56.9,43.7L56.9,43.7C56.6,43.7,56.8,43.7,56.9,43.7C56.9,43.6,56.9,43.7,56.9,43.7z"/>
<path class="st0" d="M49,50.4c-0.1,0.1-0.1,0.2-0.2,0.3c-0.1,0-0.1-0.1-0.2-0.2C48.7,50.4,48.8,50.4,49,50.4
	C48.9,50.3,49,50.4,49,50.4z"/>
<path class="st0" d="M24.7,53.2C24.8,53.2,24.8,53.2,24.7,53.2c0.1-0.1,0.1-0.1,0.1-0.1C24.8,53.2,24.8,53.2,24.7,53.2
	C24.8,53.2,24.7,53.2,24.7,53.2z"/>
<path class="st0" d="M25.2,61.3c0.1,0,0.1,0,0.2-0.1C25.3,61.3,25.3,61.3,25.2,61.3C25.2,61.4,25.2,61.3,25.2,61.3z"/>
<path class="st0" d="M53.8,74.8c0,0.1-0.1,0.2-0.1,0.2c-0.1-0.1-0.1-0.2,0-0.3C53.7,74.8,53.8,74.8,53.8,74.8z"/>
<path class="st0" d="M55.7,42.9C55.7,42.9,55.7,43,55.7,42.9C55.6,43,55.6,43,55.6,43L55.7,42.9L55.7,42.9z"/>
<path class="st0" d="M28.8,35.5C28.8,35.5,28.9,35.4,28.8,35.5C28.9,35.4,28.9,35.4,28.8,35.5C28.9,35.4,28.9,35.4,28.8,35.5
	L28.8,35.5z"/>
<path class="st0" d="M40.8,34.5c0,0.1-0.1,0.1-0.1,0.2C40.6,34.5,40.7,34.5,40.8,34.5L40.8,34.5z"/>
<path class="st0" d="M28.6,59.7l0.1-0.1C28.7,59.6,28.6,59.7,28.6,59.7L28.6,59.7z"/>
<path class="st0" d="M50,42.6c0,0.1,0,0.2,0.1,0.2c-0.1,0-0.1-0.1-0.2-0.1C49.9,42.7,50,42.6,50,42.6z"/>
<path class="st0" d="M39.7,40.8c-0.1,0-0.1,0.1-0.2,0.1c0-0.1,0.1-0.2,0.1-0.2C39.6,40.7,39.6,40.8,39.7,40.8z"/>
<path class="st0" d="M39.9,40.6c-0.1,0.1-0.2,0.2-0.2,0.2l-0.1-0.1c0.1-0.1,0.1-0.2,0.2-0.3C39.8,40.5,39.9,40.5,39.9,40.6z"/>
<path class="st0" d="M69.6,59.2c0,0.1-0.1,0.1-0.1,0.2C69.4,59.3,69.4,59.2,69.6,59.2L69.6,59.2z"/>
</svg>
